<svg xmlns="http://www.w3.org/2000/svg" width="48.931" height="48.931" viewBox="0 0 48.931 48.931">
  <g id="XMLID_1059_" transform="translate(0 -0.004)">
    <g id="XMLID_1464_" transform="translate(0 0.004)">
      <g id="XMLID_1518_" transform="translate(0 0)">
        <path id="XMLID_163_" d="M45.338,17.21a6.87,6.87,0,0,0-6.829-7.62A15.647,15.647,0,0,0,8.945,11.7,9.214,9.214,0,0,0,9.22,30.124H20.165a.956.956,0,1,0,0-1.911H9.22a7.3,7.3,0,1,1,4.855-12.761.956.956,0,0,0,1.27-1.429,9.2,9.2,0,0,0-4.458-2.176,13.735,13.735,0,0,1,26.088-.937.957.957,0,0,0,1,.621A5.052,5.052,0,0,1,38.5,11.5a4.96,4.96,0,0,1,4.844,6.054.956.956,0,0,0,.573,1.1,4.962,4.962,0,0,1-1.865,9.561H28.766a.956.956,0,1,0,0,1.911H42.054A6.873,6.873,0,0,0,45.338,17.21Z" transform="translate(0 -0.004)" fill="#ffa726"/>
      </g>
    </g>
    <g id="XMLID_868_" transform="translate(6.371 32.449)">
      <path id="XMLID_570_" d="M67.623,346.826a.956.956,0,0,1-.956-.956v-5.416a.956.956,0,0,1,1.911,0v5.416A.956.956,0,0,1,67.623,346.826Z" transform="translate(-66.667 -339.499)" fill="#ffa726"/>
    </g>
    <g id="XMLID_870_" transform="translate(13.252 32.449)">
      <path id="XMLID_569_" d="M139.623,348.845a.956.956,0,0,1-.956-.956v-7.435a.956.956,0,1,1,1.911,0v7.435A.956.956,0,0,1,139.623,348.845Z" transform="translate(-138.667 -339.499)" fill="#ffa726"/>
    </g>
    <g id="XMLID_872_" transform="translate(20.133 32.449)">
      <path id="XMLID_568_" d="M211.623,343.393a.956.956,0,0,1-.956-.956v-1.983a.956.956,0,1,1,1.911,0v1.983A.956.956,0,0,1,211.623,343.393Z" transform="translate(-210.667 -339.499)" fill="#ffa726"/>
    </g>
    <g id="XMLID_873_" transform="translate(27.014 32.449)">
      <path id="XMLID_567_" d="M283.623,347.989a.956.956,0,0,1-.956-.956v-6.579a.956.956,0,0,1,1.911,0v6.579A.956.956,0,0,1,283.623,347.989Z" transform="translate(-282.667 -339.499)" fill="#ffa726"/>
    </g>
    <g id="XMLID_912_" transform="translate(33.895 32.449)">
      <path id="XMLID_566_" d="M355.623,346.475a.956.956,0,0,1-.956-.956v-5.065a.956.956,0,0,1,1.911,0v5.065A.956.956,0,0,1,355.623,346.475Z" transform="translate(-354.667 -339.499)" fill="#ffa726"/>
    </g>
    <g id="XMLID_917_" transform="translate(33.895 41.687)">
      <path id="XMLID_565_" d="M355.623,443.412a.956.956,0,0,1-.956-.956v-5.336a.956.956,0,1,1,1.911,0v5.336A.956.956,0,0,1,355.623,443.412Z" transform="translate(-354.667 -436.165)" fill="#ffa726"/>
    </g>
    <g id="XMLID_922_" transform="translate(13.252 44.057)">
      <path id="XMLID_564_" d="M139.623,465.838a.956.956,0,0,1-.956-.956v-2.966a.956.956,0,1,1,1.911,0v2.966A.956.956,0,0,1,139.623,465.838Z" transform="translate(-138.667 -460.96)" fill="#ffa726"/>
    </g>
    <g id="XMLID_920_" transform="translate(20.133 38.606)">
      <path id="XMLID_563_" d="M211.623,409.087a.956.956,0,0,1-.956-.956v-3.257a.956.956,0,1,1,1.911,0v3.257A.956.956,0,0,1,211.623,409.087Z" transform="translate(-210.667 -403.918)" fill="#ffa726"/>
    </g>
    <g id="XMLID_919_" transform="translate(27.014 43.201)">
      <path id="XMLID_562_" d="M283.623,455.475a.956.956,0,0,1-.956-.956v-1.561a.956.956,0,1,1,1.911,0v1.561A.956.956,0,0,1,283.623,455.475Z" transform="translate(-282.667 -452.003)" fill="#ffa726"/>
    </g>
    <g id="XMLID_913_" transform="translate(40.776 32.449)">
      <path id="XMLID_561_" d="M427.623,346.826a.956.956,0,0,1-.956-.956v-5.416a.956.956,0,0,1,1.911,0v5.416A.956.956,0,0,1,427.623,346.826Z" transform="translate(-426.667 -339.499)" fill="#ffa726"/>
    </g>
    <g id="XMLID_1056_" transform="translate(23.51 28.212)">
      <g id="XMLID_1058_">
        <path id="XMLID_560_" d="M246.959,297.078a.956.956,0,1,1,.676-.28A.963.963,0,0,1,246.959,297.078Z" transform="translate(-246.003 -295.167)" fill="#ffa726"/>
      </g>
    </g>
  </g>
</svg>
