<svg xmlns="http://www.w3.org/2000/svg" width="59.784" height="48.931" viewBox="0 0 59.784 48.931">
  <path id="gorra" d="M59.212,11.117,40.307,3.909a.888.888,0,1,0-.633,1.659L56.4,11.946,44.822,16.362,30.258,9.768a.888.888,0,0,0-.733,1.618l12.96,5.868-12.593,4.8L3.38,11.946,29.891,1.838,36.425,4.33a.888.888,0,1,0,.633-1.659L30.208.059a.888.888,0,0,0-.633,0l-29,11.058a.889.889,0,0,0-.572.83V16a.889.889,0,0,0,.572.83l9.057,3.453v3.077a.888.888,0,1,0,1.776,0v-2.4l18.171,6.928a.887.887,0,0,0,.633,0l13.7-5.222V36.719A30.083,30.083,0,0,1,11.4,33.84V26.912a.888.888,0,1,0-1.776,0V34.27a.887.887,0,0,0,.333.693A31.854,31.854,0,0,0,43.9,38.709V42.3a3.374,3.374,0,1,0,1.776,0V37.771a31.646,31.646,0,0,0,4.142-2.808.888.888,0,0,0,.333-.693V20.283l9.056-3.453a.888.888,0,0,0,.572-.83V11.946a.889.889,0,0,0-.572-.83ZM46.391,45.557a1.6,1.6,0,1,1-1.6-1.6A1.6,1.6,0,0,1,46.391,45.557ZM1.775,13.235,29,23.616V25.77L1.775,15.389Zm29,12.535V23.617l13.126-5v2.154Zm17.6,8.069a29.742,29.742,0,0,1-2.7,1.869V21.99l2.7-1.029Zm-2.7-13.751V17.935l12.327-4.7v2.154Zm0,0" transform="translate(0 0)" fill="#ffa726"/>
</svg>
