<svg xmlns="http://www.w3.org/2000/svg" width="50" height="54.857" viewBox="0 0 50 54.857">
  <g id="paloma" transform="translate(-5.089 -1.998)">
    <path id="Trazado_4263" data-name="Trazado 4263" d="M43.323,58.294a.784.784,0,0,1-.147-1.553,11.517,11.517,0,0,0,2.149-.627.784.784,0,0,1,.59,1.451,13.061,13.061,0,0,1-2.443.718A.8.8,0,0,1,43.323,58.294Z" transform="translate(-8.107 -11.704)" fill="#ffa726"/>
    <path id="Trazado_4264" data-name="Trazado 4264" d="M17.587,58.326a5.211,5.211,0,0,1-3.328-1.135c-1.55.137-4.164-.548-5.224-4.009C7.87,52.246,6.43,49.821,8.03,46.113a.784.784,0,0,1,.719-.47c.1,0,9.981-.078,14.182-6.745C19.239,37.515,6.2,31.13,5.091,9.623a.784.784,0,0,1,1.131-.746L23.4,17.418A11.222,11.222,0,0,1,28.7,23.026c1.007,2.338,2.751,5.423,5.339,6.849a3.628,3.628,0,0,0,2.436.392,7.217,7.217,0,0,0,4.466-3.31,7.319,7.319,0,0,1,5.713-3.362,5.323,5.323,0,0,1,4.806,2.243,4.916,4.916,0,0,1,.755,2.014l2.645,2.682a.784.784,0,0,1-.594,1.332c-.175,0-4.466-.1-6.825,4.858a.784.784,0,0,1-1.415-.674,9.519,9.519,0,0,1,6.589-5.563l-1.707-1.732a.784.784,0,0,1-.223-.488,3.315,3.315,0,0,0-.535-1.573,3.77,3.77,0,0,0-3.4-1.539,5.757,5.757,0,0,0-4.519,2.7,8.751,8.751,0,0,1-5.457,3.956,5.185,5.185,0,0,1-3.488-.558c-2.982-1.645-4.923-5.041-6.026-7.6A9.652,9.652,0,0,0,22.7,18.828L6.743,10.89C8.5,33.509,24.112,37.655,24.272,37.7a.784.784,0,0,1,.505,1.121c-3.834,7.371-13.132,8.268-15.493,8.376-1.244,3.391.769,4.8.862,4.858a.8.8,0,0,1,.324.449c.988,3.632,3.761,3.119,3.877,3.1a.784.784,0,0,1,.682.19c1.992,1.819,4.815.584,5.745.093a14.624,14.624,0,0,1,2.644-6.045c.822-1.567,2.614-2.6,5.328-3.064a.784.784,0,1,1,.263,1.545c-1.536.262-3.517.872-4.226,2.289a.866.866,0,0,1-.082.13,12.956,12.956,0,0,0-2.416,5.7.784.784,0,0,1-.36.588,9.011,9.011,0,0,1-4.339,1.3Z" transform="translate(0 -1.471)" fill="#ffa726"/>
    <path id="Trazado_4265" data-name="Trazado 4265" d="M52.094,53.269a.784.784,0,0,1-.543-1.348,15.2,15.2,0,0,0,1.52-1.7.784.784,0,1,1,1.243.953,16.663,16.663,0,0,1-1.68,1.875A.783.783,0,0,1,52.094,53.269Z" transform="translate(-10.005 -10.369)" fill="#ffa726"/>
    <path id="Trazado_4266" data-name="Trazado 4266" d="M39.556,30.352a.784.784,0,0,1-.578-.255c-.138-.152-3.369-3.806-2.857-11.9a3.413,3.413,0,0,0-.4-1.88C33.263,11.884,27.345,7.727,21.188,3.88a10.058,10.058,0,0,0,.688,9.98.783.783,0,1,1-1.323.84,11.579,11.579,0,0,1-.305-12.349.784.784,0,0,1,1.066-.235C27.9,6.19,34.367,10.641,37.093,15.562a4.988,4.988,0,0,1,.593,2.735c-.47,7.374,2.425,10.714,2.455,10.747a.784.784,0,0,1-.585,1.307Z" transform="translate(-2.927 0)" fill="#ffa726"/>
    <path id="Trazado_4267" data-name="Trazado 4267" d="M10.894,64.344a1.255,1.255,0,0,1-.185-.005.784.784,0,0,1-.722-.841.794.794,0,0,1,.836-.722c.133.009,3.056.132,5.569-3.514a.784.784,0,1,1,1.29.889c-2.712,3.934-5.978,4.193-6.789,4.193Z" transform="translate(-1.06 -12.323)" fill="#ffa726"/>
    <path id="Trazado_4268" data-name="Trazado 4268" d="M16.883,68.918a.784.784,0,0,1-.354-1.483,11.22,11.22,0,0,0,4.037-3.9.783.783,0,1,1,1.345.8,12.608,12.608,0,0,1-4.676,4.493.773.773,0,0,1-.352.087Z" transform="translate(-2.383 -13.238)" fill="#ffa726"/>
    <path id="Trazado_4269" data-name="Trazado 4269" d="M58.461,33.567H58.2A.784.784,0,0,1,58.2,32h.261a.784.784,0,1,1,0,1.567Z" transform="translate(-11.327 -6.495)" fill="#ffa726"/>
  </g>
</svg>
